# xmcd
#
# Track frame offsets: 
#        150
#        11917
#        23047
#        35872
#        50685
#        63600
#        76050
#        86775
#        100267
#        111682
#        123742
#        139017
#
# Disc length: 2026 seconds
#
# Revision: 1
# Processed by: cddbd v1.5.2PL0 Copyright (c) Steve Scherf et al.
# Submitted via: ExactAudioCopy v0.95b4
#
DISCID=af07e80c
DTITLE=Sonny Boy Williamson - DOWN AND OUT BLUES
DYEAR=1900
DGENRE=Blues
TTITLE0=Don't Start Me To Talkin'
TTITLE1=I Don't Know
TTITLE2=All My Love In Vain
TTITLE3=The Key
TTITLE4=Keep It To Yourself
TTITLE5=Dissatisfied
TTITLE6=Fattening Frogs For Snakes
TTITLE7=Wake Up Babe
TTITLE8=Your Funeral And My Trial
TTITLE9="99"
TTITLE10=Cross My Heart
TTITLE11=Let Me Explain
EXTD=
EXTT0=
EXTT1=
EXTT2=
EXTT3=
EXTT4=
EXTT5=
EXTT6=
EXTT7=
EXTT8=
EXTT9=
EXTT10=
EXTT11=
PLAYORDER=
